G04 (created by PCBNEW (2013-mar-13)-testing) date Thu 04 Apr 2013 06:24:57 PM CEST*
%MOIN*%
G04 Gerber Fmt 3.4, Leading zero omitted, Abs format*
%FSLAX34Y34*%
G01*
G70*
G90*
G04 APERTURE LIST*
%ADD10C,0.006*%
%ADD11C,0.00590551*%
%ADD12C,0.0354*%
%ADD13R,0.035X0.055*%
%ADD14C,0.056*%
%ADD15C,0.16*%
%ADD16R,0.149606X0.0755905*%
%ADD17C,0.035*%
%ADD18C,0.01*%
%ADD19C,0.02*%
G04 APERTURE END LIST*
G54D10*
G54D11*
X64960Y-49212D02*
X64960Y-68897D01*
X84645Y-49212D02*
X64960Y-49212D01*
X84645Y-68897D02*
X84645Y-49212D01*
X64960Y-68897D02*
X84645Y-68897D01*
G54D12*
X67264Y-58189D03*
X67264Y-59921D03*
G54D13*
X80125Y-62000D03*
X80875Y-62000D03*
X80125Y-61000D03*
X80875Y-61000D03*
X80125Y-60000D03*
X80875Y-60000D03*
X80125Y-59000D03*
X80875Y-59000D03*
X80125Y-58000D03*
X80875Y-58000D03*
X80125Y-57000D03*
X80875Y-57000D03*
X80125Y-56000D03*
X80875Y-56000D03*
X80125Y-55000D03*
X80875Y-55000D03*
G54D14*
X69500Y-63750D03*
X71500Y-63750D03*
G54D15*
X66929Y-51181D03*
X82677Y-51181D03*
X82677Y-66929D03*
X66929Y-66929D03*
G54D16*
X83600Y-63055D03*
X83600Y-62055D03*
X83600Y-61055D03*
X83600Y-60055D03*
X83600Y-59055D03*
X83600Y-58055D03*
X83600Y-57055D03*
X83600Y-56055D03*
X83600Y-55055D03*
G54D17*
X72300Y-60050D03*
X83600Y-63900D03*
X82400Y-63000D03*
X70300Y-54100D03*
X74750Y-61750D03*
X76000Y-59750D03*
X73500Y-66200D03*
X70900Y-64800D03*
X70100Y-64800D03*
X72200Y-61700D03*
X72900Y-61700D03*
X76400Y-55500D03*
X75150Y-55400D03*
X69400Y-53300D03*
X67200Y-56400D03*
X67200Y-55600D03*
X67100Y-54100D03*
X67800Y-53500D03*
X68500Y-53500D03*
X70400Y-60800D03*
X69100Y-60800D03*
X69100Y-59700D03*
X79600Y-64200D03*
X76300Y-66600D03*
X74800Y-63700D03*
X77250Y-55500D03*
X76500Y-56500D03*
X79000Y-58500D03*
X78500Y-58500D03*
X70900Y-59500D03*
X78000Y-58000D03*
X70600Y-59900D03*
X71000Y-60300D03*
X76800Y-58900D03*
X79500Y-58500D03*
X75250Y-56550D03*
X76950Y-60250D03*
X73100Y-56300D03*
X76750Y-56000D03*
X73000Y-60250D03*
X75850Y-60250D03*
X70500Y-57750D03*
G54D18*
X72300Y-60050D02*
X72300Y-59950D01*
X83600Y-63055D02*
X83600Y-63900D01*
X70300Y-54100D02*
X70300Y-54200D01*
X76000Y-59750D02*
X76000Y-59850D01*
X73500Y-66200D02*
X73500Y-66500D01*
X70700Y-64800D02*
X70900Y-64800D01*
X70100Y-64800D02*
X70700Y-64800D01*
X72200Y-61700D02*
X72100Y-61700D01*
X72900Y-61700D02*
X72800Y-61700D01*
X67200Y-56400D02*
X67100Y-56400D01*
X67200Y-55600D02*
X67100Y-55600D01*
X67100Y-54100D02*
X67000Y-54100D01*
X67800Y-53500D02*
X67800Y-53400D01*
X68500Y-53500D02*
X68500Y-53400D01*
X70400Y-60800D02*
X70400Y-60600D01*
X69100Y-59700D02*
X69100Y-60800D01*
X79600Y-64200D02*
X79500Y-64200D01*
X74900Y-63600D02*
X74900Y-63500D01*
X74800Y-63700D02*
X74900Y-63600D01*
X79500Y-60000D02*
X80125Y-60000D01*
X79000Y-59500D02*
X79500Y-60000D01*
X79000Y-58500D02*
X79000Y-59500D01*
X79000Y-61000D02*
X80125Y-61000D01*
X78500Y-60500D02*
X79000Y-61000D01*
X78500Y-58500D02*
X78500Y-60500D01*
X83600Y-62055D02*
X81305Y-62055D01*
X81250Y-62000D02*
X80875Y-62000D01*
X81305Y-62055D02*
X81250Y-62000D01*
X83600Y-56055D02*
X81305Y-56055D01*
X81250Y-56000D02*
X80875Y-56000D01*
X81305Y-56055D02*
X81250Y-56000D01*
X83600Y-57055D02*
X81305Y-57055D01*
X81250Y-57000D02*
X80875Y-57000D01*
X81305Y-57055D02*
X81250Y-57000D01*
X83600Y-58055D02*
X81305Y-58055D01*
X81250Y-58000D02*
X80875Y-58000D01*
X81305Y-58055D02*
X81250Y-58000D01*
X83600Y-59055D02*
X81305Y-59055D01*
X81250Y-59000D02*
X80875Y-59000D01*
X81305Y-59055D02*
X81250Y-59000D01*
X83600Y-60055D02*
X81305Y-60055D01*
X81250Y-60000D02*
X80875Y-60000D01*
X81305Y-60055D02*
X81250Y-60000D01*
X83600Y-61055D02*
X81305Y-61055D01*
X81250Y-61000D02*
X80875Y-61000D01*
X81305Y-61055D02*
X81250Y-61000D01*
X83600Y-55055D02*
X81305Y-55055D01*
X81250Y-55000D02*
X80875Y-55000D01*
X81305Y-55055D02*
X81250Y-55000D01*
X71600Y-58800D02*
X70900Y-59500D01*
X75400Y-58800D02*
X71600Y-58800D01*
X77500Y-56700D02*
X75400Y-58800D01*
X78200Y-56700D02*
X77500Y-56700D01*
X79900Y-55000D02*
X78200Y-56700D01*
X79900Y-55000D02*
X80125Y-55000D01*
X79250Y-62000D02*
X80125Y-62000D01*
X78000Y-60750D02*
X79250Y-62000D01*
X78000Y-58000D02*
X78000Y-60750D01*
X72500Y-59100D02*
X72100Y-59100D01*
X79400Y-56000D02*
X78400Y-57000D01*
X78400Y-57000D02*
X77700Y-57000D01*
X77700Y-57000D02*
X75600Y-59100D01*
X75600Y-59100D02*
X72500Y-59100D01*
X80125Y-56000D02*
X79400Y-56000D01*
X71300Y-59900D02*
X70600Y-59900D01*
X72100Y-59100D02*
X71300Y-59900D01*
X72400Y-59500D02*
X72100Y-59500D01*
X78800Y-57000D02*
X78500Y-57300D01*
X78500Y-57300D02*
X77800Y-57300D01*
X77800Y-57300D02*
X75600Y-59500D01*
X75600Y-59500D02*
X72400Y-59500D01*
X80125Y-57000D02*
X78800Y-57000D01*
X71300Y-60300D02*
X71000Y-60300D01*
X72100Y-59500D02*
X71300Y-60300D01*
X77200Y-58500D02*
X77200Y-58300D01*
X76800Y-58900D02*
X77200Y-58500D01*
X80125Y-58000D02*
X78800Y-58000D01*
X77900Y-57600D02*
X77200Y-58300D01*
X78400Y-57600D02*
X77900Y-57600D01*
X78800Y-58000D02*
X78400Y-57600D01*
X79750Y-59000D02*
X80125Y-59000D01*
X79500Y-58750D02*
X79750Y-59000D01*
X79500Y-58500D02*
X79500Y-58750D01*
X75250Y-56550D02*
X75250Y-56000D01*
G54D19*
X76950Y-60250D02*
X75850Y-60250D01*
X70500Y-57750D02*
X70500Y-58550D01*
X72750Y-60250D02*
X73000Y-60250D01*
X71550Y-61450D02*
X72750Y-60250D01*
X70100Y-61450D02*
X71550Y-61450D01*
X69700Y-61100D02*
X70100Y-61450D01*
X69700Y-59350D02*
X69700Y-61100D01*
X70500Y-58550D02*
X69700Y-59350D01*
G54D18*
X73100Y-56300D02*
X73100Y-56000D01*
G54D19*
X76750Y-56000D02*
X75250Y-56000D01*
X72250Y-56000D02*
X70500Y-57750D01*
X75250Y-56000D02*
X73100Y-56000D01*
X73100Y-56000D02*
X72250Y-56000D01*
X73000Y-60250D02*
X75850Y-60250D01*
G54D10*
G36*
X84366Y-68618D02*
X83727Y-68618D01*
X83727Y-66721D01*
X83567Y-66335D01*
X83550Y-66317D01*
X83550Y-63620D01*
X83550Y-63105D01*
X82664Y-63105D01*
X82601Y-63167D01*
X82601Y-63383D01*
X82602Y-63483D01*
X82640Y-63574D01*
X82710Y-63645D01*
X82802Y-63683D01*
X83487Y-63683D01*
X83550Y-63620D01*
X83550Y-66317D01*
X83272Y-66039D01*
X82886Y-65879D01*
X82469Y-65878D01*
X82083Y-66038D01*
X81787Y-66333D01*
X81627Y-66719D01*
X81626Y-67137D01*
X81786Y-67523D01*
X82081Y-67818D01*
X82467Y-67978D01*
X82885Y-67979D01*
X83271Y-67819D01*
X83566Y-67524D01*
X83726Y-67138D01*
X83727Y-66721D01*
X83727Y-68618D01*
X72030Y-68618D01*
X72030Y-63645D01*
X71949Y-63450D01*
X71800Y-63300D01*
X71605Y-63220D01*
X71395Y-63219D01*
X71200Y-63300D01*
X71050Y-63449D01*
X70970Y-63644D01*
X70969Y-63854D01*
X71050Y-64049D01*
X71199Y-64199D01*
X71394Y-64279D01*
X71604Y-64280D01*
X71799Y-64199D01*
X71949Y-64050D01*
X72029Y-63855D01*
X72030Y-63645D01*
X72030Y-68618D01*
X70030Y-68618D01*
X70030Y-63645D01*
X69949Y-63450D01*
X69800Y-63300D01*
X69605Y-63220D01*
X69395Y-63219D01*
X69200Y-63300D01*
X69050Y-63449D01*
X68970Y-63644D01*
X68969Y-63854D01*
X69050Y-64049D01*
X69199Y-64199D01*
X69394Y-64279D01*
X69604Y-64280D01*
X69799Y-64199D01*
X69949Y-64050D01*
X70029Y-63855D01*
X70030Y-63645D01*
X70030Y-68618D01*
X67979Y-68618D01*
X67979Y-66721D01*
X67979Y-50973D01*
X67819Y-50587D01*
X67524Y-50291D01*
X67138Y-50131D01*
X66721Y-50130D01*
X66335Y-50290D01*
X66039Y-50585D01*
X65879Y-50971D01*
X65878Y-51389D01*
X66038Y-51775D01*
X66333Y-52070D01*
X66719Y-52230D01*
X67137Y-52231D01*
X67523Y-52071D01*
X67818Y-51776D01*
X67978Y-51390D01*
X67979Y-50973D01*
X67979Y-66721D01*
X67819Y-66335D01*
X67691Y-66206D01*
X67691Y-59836D01*
X67691Y-58104D01*
X67626Y-57947D01*
X67506Y-57827D01*
X67349Y-57762D01*
X67179Y-57762D01*
X67022Y-57826D01*
X66902Y-57946D01*
X66837Y-58103D01*
X66837Y-58273D01*
X66901Y-58430D01*
X67021Y-58550D01*
X67178Y-58616D01*
X67348Y-58616D01*
X67505Y-58551D01*
X67625Y-58431D01*
X67691Y-58274D01*
X67691Y-58104D01*
X67691Y-59836D01*
X67626Y-59679D01*
X67506Y-59559D01*
X67349Y-59494D01*
X67179Y-59494D01*
X67022Y-59558D01*
X66902Y-59678D01*
X66837Y-59835D01*
X66837Y-60005D01*
X66901Y-60162D01*
X67021Y-60282D01*
X67178Y-60348D01*
X67348Y-60348D01*
X67505Y-60283D01*
X67625Y-60163D01*
X67691Y-60006D01*
X67691Y-59836D01*
X67691Y-66206D01*
X67524Y-66039D01*
X67138Y-65879D01*
X66721Y-65878D01*
X66335Y-66038D01*
X66039Y-66333D01*
X65879Y-66719D01*
X65878Y-67137D01*
X66038Y-67523D01*
X66333Y-67818D01*
X66719Y-67978D01*
X67137Y-67979D01*
X67523Y-67819D01*
X67818Y-67524D01*
X67978Y-67138D01*
X67979Y-66721D01*
X67979Y-68618D01*
X65240Y-68618D01*
X65240Y-49492D01*
X84366Y-49492D01*
X84366Y-54427D01*
X84298Y-54427D01*
X83727Y-54427D01*
X83727Y-50973D01*
X83567Y-50587D01*
X83272Y-50291D01*
X82886Y-50131D01*
X82469Y-50130D01*
X82083Y-50290D01*
X81787Y-50585D01*
X81627Y-50971D01*
X81626Y-51389D01*
X81786Y-51775D01*
X82081Y-52070D01*
X82467Y-52230D01*
X82885Y-52231D01*
X83271Y-52071D01*
X83566Y-51776D01*
X83726Y-51390D01*
X83727Y-50973D01*
X83727Y-54427D01*
X82802Y-54427D01*
X82710Y-54465D01*
X82640Y-54535D01*
X82602Y-54627D01*
X82601Y-54726D01*
X82601Y-54755D01*
X81413Y-54755D01*
X81364Y-54722D01*
X81300Y-54709D01*
X81300Y-54709D01*
X81300Y-54675D01*
X81262Y-54583D01*
X81191Y-54513D01*
X81099Y-54475D01*
X81000Y-54474D01*
X80650Y-54474D01*
X80558Y-54512D01*
X80499Y-54571D01*
X80441Y-54513D01*
X80349Y-54475D01*
X80250Y-54474D01*
X79900Y-54474D01*
X79808Y-54512D01*
X79738Y-54583D01*
X79700Y-54675D01*
X79699Y-54774D01*
X79699Y-54779D01*
X79687Y-54787D01*
X78075Y-56400D01*
X77500Y-56400D01*
X77385Y-56422D01*
X77287Y-56487D01*
X75275Y-58500D01*
X71600Y-58500D01*
X71485Y-58522D01*
X71387Y-58587D01*
X70900Y-59075D01*
X70815Y-59074D01*
X70659Y-59139D01*
X70539Y-59258D01*
X70475Y-59415D01*
X70475Y-59491D01*
X70359Y-59539D01*
X70239Y-59658D01*
X70175Y-59815D01*
X70174Y-59984D01*
X70239Y-60140D01*
X70358Y-60260D01*
X70515Y-60324D01*
X70574Y-60324D01*
X70574Y-60384D01*
X70639Y-60540D01*
X70758Y-60660D01*
X70915Y-60724D01*
X71084Y-60725D01*
X71240Y-60660D01*
X71301Y-60599D01*
X71414Y-60577D01*
X71414Y-60577D01*
X71512Y-60512D01*
X71879Y-60144D01*
X71939Y-60290D01*
X72058Y-60410D01*
X72084Y-60420D01*
X71405Y-61100D01*
X70231Y-61100D01*
X70050Y-60941D01*
X70050Y-59494D01*
X70747Y-58797D01*
X70747Y-58797D01*
X70747Y-58797D01*
X70823Y-58683D01*
X70849Y-58550D01*
X70850Y-58550D01*
X70850Y-58001D01*
X70860Y-57991D01*
X70924Y-57834D01*
X70924Y-57820D01*
X72394Y-56350D01*
X72674Y-56350D01*
X72674Y-56384D01*
X72739Y-56540D01*
X72858Y-56660D01*
X73015Y-56724D01*
X73184Y-56725D01*
X73340Y-56660D01*
X73460Y-56541D01*
X73524Y-56384D01*
X73524Y-56350D01*
X74872Y-56350D01*
X74825Y-56465D01*
X74824Y-56634D01*
X74889Y-56790D01*
X75008Y-56910D01*
X75165Y-56974D01*
X75334Y-56975D01*
X75490Y-56910D01*
X75610Y-56791D01*
X75674Y-56634D01*
X75675Y-56465D01*
X75627Y-56350D01*
X76498Y-56350D01*
X76508Y-56360D01*
X76665Y-56424D01*
X76834Y-56425D01*
X76990Y-56360D01*
X77110Y-56241D01*
X77174Y-56084D01*
X77175Y-55915D01*
X77110Y-55759D01*
X76991Y-55639D01*
X76834Y-55575D01*
X76665Y-55574D01*
X76509Y-55639D01*
X76499Y-55650D01*
X75250Y-55650D01*
X73100Y-55650D01*
X72250Y-55650D01*
X72116Y-55676D01*
X72002Y-55752D01*
X70430Y-57324D01*
X70415Y-57324D01*
X70259Y-57389D01*
X70139Y-57508D01*
X70075Y-57665D01*
X70074Y-57834D01*
X70139Y-57990D01*
X70150Y-58000D01*
X70150Y-58405D01*
X69452Y-59102D01*
X69376Y-59216D01*
X69350Y-59350D01*
X69350Y-61100D01*
X69352Y-61111D01*
X69350Y-61123D01*
X69365Y-61178D01*
X69376Y-61233D01*
X69383Y-61243D01*
X69386Y-61255D01*
X69420Y-61300D01*
X69452Y-61347D01*
X69462Y-61354D01*
X69469Y-61363D01*
X69869Y-61713D01*
X69920Y-61742D01*
X69966Y-61773D01*
X69977Y-61775D01*
X69987Y-61781D01*
X70045Y-61789D01*
X70100Y-61800D01*
X71550Y-61800D01*
X71683Y-61773D01*
X71683Y-61773D01*
X71797Y-61697D01*
X72847Y-60647D01*
X72915Y-60674D01*
X73084Y-60675D01*
X73240Y-60610D01*
X73250Y-60600D01*
X75598Y-60600D01*
X75608Y-60610D01*
X75765Y-60674D01*
X75934Y-60675D01*
X76090Y-60610D01*
X76100Y-60600D01*
X76698Y-60600D01*
X76708Y-60610D01*
X76865Y-60674D01*
X77034Y-60675D01*
X77190Y-60610D01*
X77310Y-60491D01*
X77374Y-60334D01*
X77375Y-60165D01*
X77310Y-60009D01*
X77191Y-59889D01*
X77034Y-59825D01*
X76865Y-59824D01*
X76709Y-59889D01*
X76699Y-59900D01*
X76101Y-59900D01*
X76091Y-59889D01*
X75934Y-59825D01*
X75765Y-59824D01*
X75609Y-59889D01*
X75599Y-59900D01*
X73251Y-59900D01*
X73241Y-59889D01*
X73084Y-59825D01*
X72915Y-59824D01*
X72759Y-59889D01*
X72748Y-59900D01*
X72701Y-59909D01*
X72660Y-59809D01*
X72650Y-59800D01*
X75600Y-59800D01*
X75600Y-59799D01*
X75714Y-59777D01*
X75714Y-59777D01*
X75812Y-59712D01*
X76423Y-59101D01*
X76439Y-59140D01*
X76558Y-59260D01*
X76715Y-59324D01*
X76884Y-59325D01*
X77040Y-59260D01*
X77160Y-59141D01*
X77224Y-58984D01*
X77225Y-58899D01*
X77412Y-58712D01*
X77412Y-58712D01*
X77477Y-58614D01*
X77499Y-58500D01*
X77500Y-58500D01*
X77500Y-58424D01*
X77661Y-58262D01*
X77700Y-58301D01*
X77700Y-60750D01*
X77722Y-60864D01*
X77787Y-60962D01*
X79037Y-62212D01*
X79135Y-62277D01*
X79250Y-62300D01*
X79699Y-62300D01*
X79699Y-62324D01*
X79737Y-62416D01*
X79808Y-62486D01*
X79900Y-62524D01*
X79999Y-62525D01*
X80349Y-62525D01*
X80441Y-62487D01*
X80500Y-62428D01*
X80558Y-62486D01*
X80650Y-62524D01*
X80749Y-62525D01*
X81099Y-62525D01*
X81191Y-62487D01*
X81261Y-62416D01*
X81288Y-62351D01*
X81305Y-62355D01*
X81305Y-62355D01*
X82601Y-62355D01*
X82601Y-62482D01*
X82631Y-62555D01*
X82602Y-62627D01*
X82601Y-62726D01*
X82601Y-62942D01*
X82664Y-63005D01*
X83550Y-63005D01*
X83550Y-62997D01*
X83650Y-62997D01*
X83650Y-63005D01*
X83657Y-63005D01*
X83657Y-63105D01*
X83650Y-63105D01*
X83650Y-63620D01*
X83712Y-63683D01*
X84366Y-63683D01*
X84366Y-68618D01*
X84366Y-68618D01*
G37*
G54D18*
X84366Y-68618D02*
X83727Y-68618D01*
X83727Y-66721D01*
X83567Y-66335D01*
X83550Y-66317D01*
X83550Y-63620D01*
X83550Y-63105D01*
X82664Y-63105D01*
X82601Y-63167D01*
X82601Y-63383D01*
X82602Y-63483D01*
X82640Y-63574D01*
X82710Y-63645D01*
X82802Y-63683D01*
X83487Y-63683D01*
X83550Y-63620D01*
X83550Y-66317D01*
X83272Y-66039D01*
X82886Y-65879D01*
X82469Y-65878D01*
X82083Y-66038D01*
X81787Y-66333D01*
X81627Y-66719D01*
X81626Y-67137D01*
X81786Y-67523D01*
X82081Y-67818D01*
X82467Y-67978D01*
X82885Y-67979D01*
X83271Y-67819D01*
X83566Y-67524D01*
X83726Y-67138D01*
X83727Y-66721D01*
X83727Y-68618D01*
X72030Y-68618D01*
X72030Y-63645D01*
X71949Y-63450D01*
X71800Y-63300D01*
X71605Y-63220D01*
X71395Y-63219D01*
X71200Y-63300D01*
X71050Y-63449D01*
X70970Y-63644D01*
X70969Y-63854D01*
X71050Y-64049D01*
X71199Y-64199D01*
X71394Y-64279D01*
X71604Y-64280D01*
X71799Y-64199D01*
X71949Y-64050D01*
X72029Y-63855D01*
X72030Y-63645D01*
X72030Y-68618D01*
X70030Y-68618D01*
X70030Y-63645D01*
X69949Y-63450D01*
X69800Y-63300D01*
X69605Y-63220D01*
X69395Y-63219D01*
X69200Y-63300D01*
X69050Y-63449D01*
X68970Y-63644D01*
X68969Y-63854D01*
X69050Y-64049D01*
X69199Y-64199D01*
X69394Y-64279D01*
X69604Y-64280D01*
X69799Y-64199D01*
X69949Y-64050D01*
X70029Y-63855D01*
X70030Y-63645D01*
X70030Y-68618D01*
X67979Y-68618D01*
X67979Y-66721D01*
X67979Y-50973D01*
X67819Y-50587D01*
X67524Y-50291D01*
X67138Y-50131D01*
X66721Y-50130D01*
X66335Y-50290D01*
X66039Y-50585D01*
X65879Y-50971D01*
X65878Y-51389D01*
X66038Y-51775D01*
X66333Y-52070D01*
X66719Y-52230D01*
X67137Y-52231D01*
X67523Y-52071D01*
X67818Y-51776D01*
X67978Y-51390D01*
X67979Y-50973D01*
X67979Y-66721D01*
X67819Y-66335D01*
X67691Y-66206D01*
X67691Y-59836D01*
X67691Y-58104D01*
X67626Y-57947D01*
X67506Y-57827D01*
X67349Y-57762D01*
X67179Y-57762D01*
X67022Y-57826D01*
X66902Y-57946D01*
X66837Y-58103D01*
X66837Y-58273D01*
X66901Y-58430D01*
X67021Y-58550D01*
X67178Y-58616D01*
X67348Y-58616D01*
X67505Y-58551D01*
X67625Y-58431D01*
X67691Y-58274D01*
X67691Y-58104D01*
X67691Y-59836D01*
X67626Y-59679D01*
X67506Y-59559D01*
X67349Y-59494D01*
X67179Y-59494D01*
X67022Y-59558D01*
X66902Y-59678D01*
X66837Y-59835D01*
X66837Y-60005D01*
X66901Y-60162D01*
X67021Y-60282D01*
X67178Y-60348D01*
X67348Y-60348D01*
X67505Y-60283D01*
X67625Y-60163D01*
X67691Y-60006D01*
X67691Y-59836D01*
X67691Y-66206D01*
X67524Y-66039D01*
X67138Y-65879D01*
X66721Y-65878D01*
X66335Y-66038D01*
X66039Y-66333D01*
X65879Y-66719D01*
X65878Y-67137D01*
X66038Y-67523D01*
X66333Y-67818D01*
X66719Y-67978D01*
X67137Y-67979D01*
X67523Y-67819D01*
X67818Y-67524D01*
X67978Y-67138D01*
X67979Y-66721D01*
X67979Y-68618D01*
X65240Y-68618D01*
X65240Y-49492D01*
X84366Y-49492D01*
X84366Y-54427D01*
X84298Y-54427D01*
X83727Y-54427D01*
X83727Y-50973D01*
X83567Y-50587D01*
X83272Y-50291D01*
X82886Y-50131D01*
X82469Y-50130D01*
X82083Y-50290D01*
X81787Y-50585D01*
X81627Y-50971D01*
X81626Y-51389D01*
X81786Y-51775D01*
X82081Y-52070D01*
X82467Y-52230D01*
X82885Y-52231D01*
X83271Y-52071D01*
X83566Y-51776D01*
X83726Y-51390D01*
X83727Y-50973D01*
X83727Y-54427D01*
X82802Y-54427D01*
X82710Y-54465D01*
X82640Y-54535D01*
X82602Y-54627D01*
X82601Y-54726D01*
X82601Y-54755D01*
X81413Y-54755D01*
X81364Y-54722D01*
X81300Y-54709D01*
X81300Y-54709D01*
X81300Y-54675D01*
X81262Y-54583D01*
X81191Y-54513D01*
X81099Y-54475D01*
X81000Y-54474D01*
X80650Y-54474D01*
X80558Y-54512D01*
X80499Y-54571D01*
X80441Y-54513D01*
X80349Y-54475D01*
X80250Y-54474D01*
X79900Y-54474D01*
X79808Y-54512D01*
X79738Y-54583D01*
X79700Y-54675D01*
X79699Y-54774D01*
X79699Y-54779D01*
X79687Y-54787D01*
X78075Y-56400D01*
X77500Y-56400D01*
X77385Y-56422D01*
X77287Y-56487D01*
X75275Y-58500D01*
X71600Y-58500D01*
X71485Y-58522D01*
X71387Y-58587D01*
X70900Y-59075D01*
X70815Y-59074D01*
X70659Y-59139D01*
X70539Y-59258D01*
X70475Y-59415D01*
X70475Y-59491D01*
X70359Y-59539D01*
X70239Y-59658D01*
X70175Y-59815D01*
X70174Y-59984D01*
X70239Y-60140D01*
X70358Y-60260D01*
X70515Y-60324D01*
X70574Y-60324D01*
X70574Y-60384D01*
X70639Y-60540D01*
X70758Y-60660D01*
X70915Y-60724D01*
X71084Y-60725D01*
X71240Y-60660D01*
X71301Y-60599D01*
X71414Y-60577D01*
X71414Y-60577D01*
X71512Y-60512D01*
X71879Y-60144D01*
X71939Y-60290D01*
X72058Y-60410D01*
X72084Y-60420D01*
X71405Y-61100D01*
X70231Y-61100D01*
X70050Y-60941D01*
X70050Y-59494D01*
X70747Y-58797D01*
X70747Y-58797D01*
X70747Y-58797D01*
X70823Y-58683D01*
X70849Y-58550D01*
X70850Y-58550D01*
X70850Y-58001D01*
X70860Y-57991D01*
X70924Y-57834D01*
X70924Y-57820D01*
X72394Y-56350D01*
X72674Y-56350D01*
X72674Y-56384D01*
X72739Y-56540D01*
X72858Y-56660D01*
X73015Y-56724D01*
X73184Y-56725D01*
X73340Y-56660D01*
X73460Y-56541D01*
X73524Y-56384D01*
X73524Y-56350D01*
X74872Y-56350D01*
X74825Y-56465D01*
X74824Y-56634D01*
X74889Y-56790D01*
X75008Y-56910D01*
X75165Y-56974D01*
X75334Y-56975D01*
X75490Y-56910D01*
X75610Y-56791D01*
X75674Y-56634D01*
X75675Y-56465D01*
X75627Y-56350D01*
X76498Y-56350D01*
X76508Y-56360D01*
X76665Y-56424D01*
X76834Y-56425D01*
X76990Y-56360D01*
X77110Y-56241D01*
X77174Y-56084D01*
X77175Y-55915D01*
X77110Y-55759D01*
X76991Y-55639D01*
X76834Y-55575D01*
X76665Y-55574D01*
X76509Y-55639D01*
X76499Y-55650D01*
X75250Y-55650D01*
X73100Y-55650D01*
X72250Y-55650D01*
X72116Y-55676D01*
X72002Y-55752D01*
X70430Y-57324D01*
X70415Y-57324D01*
X70259Y-57389D01*
X70139Y-57508D01*
X70075Y-57665D01*
X70074Y-57834D01*
X70139Y-57990D01*
X70150Y-58000D01*
X70150Y-58405D01*
X69452Y-59102D01*
X69376Y-59216D01*
X69350Y-59350D01*
X69350Y-61100D01*
X69352Y-61111D01*
X69350Y-61123D01*
X69365Y-61178D01*
X69376Y-61233D01*
X69383Y-61243D01*
X69386Y-61255D01*
X69420Y-61300D01*
X69452Y-61347D01*
X69462Y-61354D01*
X69469Y-61363D01*
X69869Y-61713D01*
X69920Y-61742D01*
X69966Y-61773D01*
X69977Y-61775D01*
X69987Y-61781D01*
X70045Y-61789D01*
X70100Y-61800D01*
X71550Y-61800D01*
X71683Y-61773D01*
X71683Y-61773D01*
X71797Y-61697D01*
X72847Y-60647D01*
X72915Y-60674D01*
X73084Y-60675D01*
X73240Y-60610D01*
X73250Y-60600D01*
X75598Y-60600D01*
X75608Y-60610D01*
X75765Y-60674D01*
X75934Y-60675D01*
X76090Y-60610D01*
X76100Y-60600D01*
X76698Y-60600D01*
X76708Y-60610D01*
X76865Y-60674D01*
X77034Y-60675D01*
X77190Y-60610D01*
X77310Y-60491D01*
X77374Y-60334D01*
X77375Y-60165D01*
X77310Y-60009D01*
X77191Y-59889D01*
X77034Y-59825D01*
X76865Y-59824D01*
X76709Y-59889D01*
X76699Y-59900D01*
X76101Y-59900D01*
X76091Y-59889D01*
X75934Y-59825D01*
X75765Y-59824D01*
X75609Y-59889D01*
X75599Y-59900D01*
X73251Y-59900D01*
X73241Y-59889D01*
X73084Y-59825D01*
X72915Y-59824D01*
X72759Y-59889D01*
X72748Y-59900D01*
X72701Y-59909D01*
X72660Y-59809D01*
X72650Y-59800D01*
X75600Y-59800D01*
X75600Y-59799D01*
X75714Y-59777D01*
X75714Y-59777D01*
X75812Y-59712D01*
X76423Y-59101D01*
X76439Y-59140D01*
X76558Y-59260D01*
X76715Y-59324D01*
X76884Y-59325D01*
X77040Y-59260D01*
X77160Y-59141D01*
X77224Y-58984D01*
X77225Y-58899D01*
X77412Y-58712D01*
X77412Y-58712D01*
X77477Y-58614D01*
X77499Y-58500D01*
X77500Y-58500D01*
X77500Y-58424D01*
X77661Y-58262D01*
X77700Y-58301D01*
X77700Y-60750D01*
X77722Y-60864D01*
X77787Y-60962D01*
X79037Y-62212D01*
X79135Y-62277D01*
X79250Y-62300D01*
X79699Y-62300D01*
X79699Y-62324D01*
X79737Y-62416D01*
X79808Y-62486D01*
X79900Y-62524D01*
X79999Y-62525D01*
X80349Y-62525D01*
X80441Y-62487D01*
X80500Y-62428D01*
X80558Y-62486D01*
X80650Y-62524D01*
X80749Y-62525D01*
X81099Y-62525D01*
X81191Y-62487D01*
X81261Y-62416D01*
X81288Y-62351D01*
X81305Y-62355D01*
X81305Y-62355D01*
X82601Y-62355D01*
X82601Y-62482D01*
X82631Y-62555D01*
X82602Y-62627D01*
X82601Y-62726D01*
X82601Y-62942D01*
X82664Y-63005D01*
X83550Y-63005D01*
X83550Y-62997D01*
X83650Y-62997D01*
X83650Y-63005D01*
X83657Y-63005D01*
X83657Y-63105D01*
X83650Y-63105D01*
X83650Y-63620D01*
X83712Y-63683D01*
X84366Y-63683D01*
X84366Y-68618D01*
M02*
