M48
INCH,TZ
T1C0.025
T2C0.030
T3C0.035
T4C0.120
%
G90
G05
T1
X67100Y-54100
X67200Y-55600
X67200Y-56400
X67800Y-53500
X68500Y-53500
X69100Y-59700
X69100Y-60800
X69400Y-53300
X70100Y-64800
X70300Y-54100
X70400Y-60800
X70500Y-57750
X70600Y-59900
X70900Y-59500
X70900Y-64800
X71000Y-60300
X72200Y-61700
X72300Y-60050
X72900Y-61700
X73000Y-60250
X73100Y-56300
X73500Y-66200
X74750Y-61750
X74800Y-63700
X75150Y-55400
X75250Y-56550
X75850Y-60250
X76000Y-59750
X76300Y-66600
X76400Y-55500
X76500Y-56500
X76750Y-56000
X76800Y-58900
X76950Y-60250
X77250Y-55500
X78000Y-58000
X78500Y-58500
X79000Y-58500
X79500Y-58500
X79600Y-64200
X82400Y-63000
X83600Y-63900
T2
X69500Y-63750
X71500Y-63750
T3
X67264Y-58189
X67264Y-59921
T4
X66929Y-51181
X66929Y-66929
X82677Y-51181
X82677Y-66929
T0
M30
