G04 (created by PCBNEW (2013-mar-13)-testing) date Thu 04 Apr 2013 06:24:57 PM CEST*
%MOIN*%
G04 Gerber Fmt 3.4, Leading zero omitted, Abs format*
%FSLAX34Y34*%
G01*
G70*
G90*
G04 APERTURE LIST*
%ADD10C,0.006*%
%ADD11C,0.00590551*%
%ADD12C,0.0354*%
%ADD13R,0.035X0.055*%
%ADD14C,0.056*%
%ADD15C,0.16*%
%ADD16R,0.149606X0.0755905*%
G04 APERTURE END LIST*
G54D10*
G54D11*
X64960Y-49212D02*
X64960Y-68897D01*
X84645Y-49212D02*
X64960Y-49212D01*
X84645Y-68897D02*
X84645Y-49212D01*
X64960Y-68897D02*
X84645Y-68897D01*
G54D12*
X67264Y-58189D03*
X67264Y-59921D03*
G54D13*
X80125Y-62000D03*
X80875Y-62000D03*
X80125Y-61000D03*
X80875Y-61000D03*
X80125Y-60000D03*
X80875Y-60000D03*
X80125Y-59000D03*
X80875Y-59000D03*
X80125Y-58000D03*
X80875Y-58000D03*
X80125Y-57000D03*
X80875Y-57000D03*
X80125Y-56000D03*
X80875Y-56000D03*
X80125Y-55000D03*
X80875Y-55000D03*
G54D14*
X69500Y-63750D03*
X71500Y-63750D03*
G54D15*
X66929Y-51181D03*
X82677Y-51181D03*
X82677Y-66929D03*
X66929Y-66929D03*
G54D16*
X83600Y-63055D03*
X83600Y-62055D03*
X83600Y-61055D03*
X83600Y-60055D03*
X83600Y-59055D03*
X83600Y-58055D03*
X83600Y-57055D03*
X83600Y-56055D03*
X83600Y-55055D03*
M02*
